<svg xmlns="http://www.w3.org/2000/svg" viewBox="0 0 54 54">
	<path d="M53.516 1.143c-.3-.182-.674-.19-.983-.027L36 9.87 19.468 1.115c-.013-.007-.028-.01-.04-.015-.05-.022-.098-.04-.148-.054-.028-.008-.055-.017-.083-.023-.055-.01-.11-.015-.168-.017-.03 0-.05-.004-.08-.003-.06.003-.11.013-.16.025-.03.006-.06.01-.09.02-.01 0-.02 0-.02.003l-18 6C.27 7.19 0 7.57 0 8v43c0 .32.154.623.416.812.172.123.377.188.584.188.106 0 .213-.017.316-.052l17.646-5.882 16.657 6.86c.01.005.03.003.04.008.11.04.22.066.33.066.09 0 .18-.015.26-.04.03-.007.05-.02.08-.03.04-.015.08-.026.12-.046l17-9c.32-.173.53-.514.53-.884V2c0-.35-.19-.676-.49-.857zM2 8.72l16-5.33v26.99c-.43.078-.854.166-1.264.274-.534.142-.852.69-.71 1.223.12.448.523.744.966.744.084 0 .17-.01.257-.03.24-.06.5-.09.75-.15v11.84L2 49.62V8.728zm18 23.44c.32-.025.632-.066.96-.073.553-.012.99-.47.98-1.02-.012-.546-.457-.98-1-.98h-.022c-.31.007-.615.024-.918.045V3.662l15 7.94v21.194c-.714-.03-1.44-.115-2.2-.262-.545-.107-1.068.25-1.173.79s.25 1.068.792 1.173c.88.172 1.74.256 2.58.29v15.72L20 44.33V32.16zm32 10.237l-15 7.94v-15.66c.372-.168.62-.548.587-.98-.03-.373-.27-.673-.587-.82V11.602l15-7.94v38.735z"/>
	<path d="M11 9c-2.757 0-5 2.243-5 5 0 2.415 1.72 4.434 4 4.9V21c0 .553.448 1 1 1s1-.447 1-1v-2.1c2.28-.466 4-2.485 4-4.9 0-2.757-2.243-5-5-5zm0 8c-1.654 0-3-1.346-3-3s1.346-3 3-3 3 1.346 3 3-1.346 3-3 3zm34.07 10.673c.12.047.243.068.364.068.4 0 .777-.24.932-.63.47-1.2.847-2.55 1.123-4.02.1-.54-.26-1.06-.8-1.16-.55-.09-1.07.26-1.17.8-.25 1.35-.6 2.58-1.02 3.67-.2.514.05 1.095.56 1.297zm-32.265 4.67c-1.207.756-2.295 1.704-3.235 2.82-.356.42-.302 1.052.12 1.41.188.156.417.233.644.233.285 0 .567-.12.765-.355.8-.95 1.73-1.76 2.76-2.41.47-.29.61-.91.31-1.38-.3-.46-.91-.61-1.38-.31zm-4.178 5.933c-.502-.23-1.096-.013-1.327.49-1.026 2.225-1.28 4.022-1.29 4.098-.076.547.306 1.05.853 1.125.046 0 .093.01.138.01.5 0 .92-.37.99-.87.01-.02.24-1.6 1.13-3.54.23-.51.01-1.1-.49-1.33zm31.796-4.546c.153 0 .31-.036.454-.11 1.292-.66 2.43-1.6 3.384-2.786.35-.43.28-1.06-.15-1.406-.43-.343-1.06-.276-1.4.154-.77.967-1.69 1.726-2.73 2.257-.49.25-.68.85-.43 1.34.18.34.53.54.898.54zM29.17 31.432c-.44-.185-.7-.313-.716-.322-.065-.033-.134-.06-.205-.078-1.09-.278-2.15-.498-3.18-.654-.55-.086-1.06.29-1.14.837-.09.546.29 1.057.84 1.14.92.142 1.89.34 2.87.59.13.064.39.185.75.334.12.05.25.07.38.07.39 0 .76-.23.92-.62.21-.51-.03-1.1-.54-1.31zM46.923 19.93c.022.002.043.003.065.003.523 0 .963-.406.997-.937.062-.96.093-1.978.093-3.02 0-.347-.003-.7-.01-1.058-.01-.553-.49-.973-1.018-.982-.552.01-.992.466-.982 1.018.006.347.01.688.01 1.022 0 1-.03 1.973-.09 2.893-.034.55.384 1.02.935 1.06zm-38.63 8.777c.195.195.45.293.707.293s.512-.098.707-.293L11 27.414l1.293 1.293c.195.195.45.293.707.293s.512-.098.707-.293c.39-.39.39-1.023 0-1.414L12.414 26l1.293-1.293c.39-.39.39-1.023 0-1.414s-1.023-.39-1.414 0L11 24.586l-1.293-1.293c-.39-.39-1.023-.39-1.414 0s-.39 1.023 0 1.414L9.586 26l-1.293 1.293c-.39.39-.39 1.023 0 1.414z"/>
</svg>